<?xml version="1.0" standalone="no"?>
<!DOCTYPE svg PUBLIC "-//W3C//DTD SVG 20010904//EN"
 "http://www.w3.org/TR/2001/REC-SVG-20010904/DTD/svg10.dtd">
<svg version="1.0" xmlns="http://www.w3.org/2000/svg"
 width="392.000000pt" height="129.000000pt" viewBox="0 0 392.000000 129.000000"
 preserveAspectRatio="xMidYMid meet">

<g transform="translate(0.000000,129.000000) scale(0.100000,-0.100000)"
fill="#000000" stroke="none">
<path d="M0 795 l0 -485 75 0 75 0 0 89 0 89 51 62 52 61 34 -63 c19 -35 54
-102 79 -150 l44 -88 91 0 91 0 -35 62 c-19 35 -69 127 -112 205 l-77 143 106
135 c58 74 106 137 106 140 0 3 -39 5 -87 5 l-88 -1 -138 -168 c-76 -93 -144
-177 -152 -187 -20 -26 -19 -18 10 66 24 71 25 83 25 322 l0 248 -75 0 -75 0
0 -485z"/>
<path d="M840 995 c-139 -46 -231 -182 -232 -342 0 -172 92 -302 246 -348 89
-27 227 -16 318 25 l40 18 1 76 c1 42 1 76 -1 76 -1 0 -24 -11 -50 -24 -113
-56 -243 -60 -316 -9 -39 28 -67 66 -81 111 l-6 22 260 0 261 0 0 75 c0 134
-64 246 -174 302 -64 33 -194 42 -266 18z m212 -137 c41 -23 71 -64 82 -110
l6 -28 -191 0 -191 0 7 28 c10 40 51 89 93 112 53 27 142 27 194 -2z"/>
<path d="M1485 985 c-110 -45 -159 -142 -124 -246 25 -72 85 -114 216 -150 90
-24 120 -40 135 -74 9 -19 7 -29 -6 -49 -38 -58 -157 -54 -279 9 l-68 35 3
-83 3 -82 60 -25 c53 -22 75 -25 180 -25 115 0 122 1 175 30 74 41 111 101
111 178 0 113 -62 173 -226 217 -93 25 -110 33 -131 65 -17 25 -10 49 21 75
34 29 223 -1 280 -44 11 -9 23 -16 28 -16 4 0 7 35 7 78 0 75 -1 79 -26 91
-102 46 -267 54 -359 16z"/>
<path d="M2980 994 c-19 -8 -45 -25 -57 -36 l-23 -21 0 31 0 32 -75 0 -75 0 0
-345 0 -345 75 0 75 0 0 218 c0 187 2 222 18 251 28 57 61 74 152 79 l80 5 0
73 0 74 -67 0 c-38 -1 -84 -8 -103 -16z"/>
<path d="M3223 998 c2 -7 62 -155 131 -329 l127 -315 -62 -130 c-34 -71 -70
-148 -80 -171 l-18 -43 88 0 88 0 210 500 210 500 -86 0 -86 0 -99 -253 c-55
-138 -103 -259 -108 -267 -4 -9 -8 20 -7 70 0 82 -2 92 -69 265 l-69 180 -88
3 c-68 2 -86 0 -82 -10z"/>
<path d="M1990 505 l0 -495 75 0 75 0 0 138 -1 137 -39 45 c-22 24 -38 46 -36
47 2 2 39 -13 82 -34 71 -34 87 -38 156 -37 65 0 86 5 141 32 76 38 129 92
165 171 23 47 27 70 27 146 0 82 -3 97 -33 157 -37 76 -83 120 -162 157 -46
21 -69 26 -140 25 -56 0 -98 -6 -122 -17 -37 -15 -38 -15 -38 4 0 17 -7 19
-75 19 l-75 0 0 -495z m386 326 c114 -52 146 -211 62 -307 -41 -47 -79 -65
-136 -65 -58 -1 -98 14 -134 49 -28 25 -28 28 -28 148 l0 123 33 25 c65 50
133 59 203 27z"/>
<path fill="#3721f8" d="M0 90 l0 -80 233 0 232 0 50 62 c28 34 56 70 63 80 13 17 0 18 -282
18 l-296 0 0 -80z"/>
</g>
</svg>
